<svg viewBox="0 0 12 12" width="60px" height="60px" xmlns="http://www.w3.org/2000/svg"><path fill-rule="evenodd" d="M 0,0 3,0 3,2 5,2 5,3 7,3 7,2 9,2 9,0 12,0 12,5 10,5 10,9 11,9 11,12 1,12 1,9 2,9 2,5 0,5z" fill="#43BF4D"/><path fill-rule="evenodd" d="M 1,1 2,1 2,2 1,2z" fill="#ffffff"/><path fill-rule="evenodd" d="M 10,1 11,1 11,2 10,2z" fill="#ffffff"/><path fill-rule="evenodd" d="M 1,3 2,3 2,4 1,4z" fill="#ffffff"/><path fill-rule="evenodd" d="M 3,3 4,3 4,4 3,4z" fill="#ffffff"/><path fill-rule="evenodd" d="M 8,3 9,3 9,4 8,4z" fill="#ffffff"/><path fill-rule="evenodd" d="M 10,3 11,3 11,4 10,4z" fill="#ffffff"/><path fill-rule="evenodd" d="M 4,4 5,4 5,6 4,6z" fill="#ffffff"/><path fill-rule="evenodd" d="M 7,4 8,4 8,6 7,6z" fill="#ffffff"/><path fill-rule="evenodd" d="M 3,6 4,6 4,7 3,7z" fill="#ffffff"/><path fill-rule="evenodd" d="M 8,6 9,6 9,7 8,7z" fill="#ffffff"/><path fill-rule="evenodd" d="M 3,8 9,8 9,9 8,9 8,11 4,11 4,9 3,9z M 5,9 7,9 7,10 5,10z" fill="#ffffff"/><path fill-rule="evenodd" d="M 2,10 3,10 3,11 2,11z" fill="#ffffff"/><path fill-rule="evenodd" d="M 9,10 10,10 10,11 9,11z" fill="#ffffff"/></svg>